inDegrees=no
num_controls=7
num_derivatives=13
num_iterations=77
num_multipliers=7
num_parameters=0
num_slacks=7
num_states=26
objective=0.454525
objective_accelerations=0.044561
objective_balance=0.000800
objective_effort=0.036436
objective_height=0.366662
objective_ligament=0.006066
solver_duration=873.080865
status=Solve_Succeeded
success=true
DataType=double
version=3
OpenSimVersion=4.5
endheader
time	/jointset/ground_pelvis/pelvis_tilt/value	/jointset/ground_pelvis/pelvis_tx/value	/jointset/ground_pelvis/pelvis_ty/value	/jointset/hip_r/hip_flexion_r/value	/jointset/hip_r/hip_adduction_r/value	/jointset/hip_r/hip_rotation_r/value	/jointset/back/lumbar_extension/value	/jointset/patellofemoral_r/patellar_flexion_r/value	/jointset/knee_r/knee_flexion_r/value	/jointset/knee_r/knee_adduction_r/value	/jointset/knee_r/knee_rotation_r/value	/jointset/ankle_r/ankle_angle_r/value	/jointset/subtalar_r/subtalar_angle_r/value	/jointset/ground_pelvis/pelvis_tilt/speed	/jointset/ground_pelvis/pelvis_tx/speed	/jointset/ground_pelvis/pelvis_ty/speed	/jointset/hip_r/hip_flexion_r/speed	/jointset/hip_r/hip_adduction_r/speed	/jointset/hip_r/hip_rotation_r/speed	/jointset/back/lumbar_extension/speed	/jointset/patellofemoral_r/patellar_flexion_r/speed	/jointset/knee_r/knee_flexion_r/speed	/jointset/knee_r/knee_adduction_r/speed	/jointset/knee_r/knee_rotation_r/speed	/jointset/ankle_r/ankle_angle_r/speed	/jointset/subtalar_r/subtalar_angle_r/speed	/forceset/tau_hip_flexion_r	/forceset/tau_hip_adduction_r	/forceset/tau_hip_rotation_r	/forceset/tau_knee_flexion_r	/forceset/tau_ankle_angle_r	/forceset/tau_subtalar_angle_r	/forceset/tau_lumbar_extension	lambda_cid13_p0	lambda_cid14_p0	lambda_cid14_p1	lambda_cid14_p2	lambda_cid14_p3	lambda_cid14_p4	lambda_cid14_p5	/jointset/ground_pelvis/pelvis_tilt/accel	/jointset/ground_pelvis/pelvis_tx/accel	/jointset/ground_pelvis/pelvis_ty/accel	/jointset/hip_r/hip_flexion_r/accel	/jointset/hip_r/hip_adduction_r/accel	/jointset/hip_r/hip_rotation_r/accel	/jointset/back/lumbar_extension/accel	/jointset/patellofemoral_r/patellar_flexion_r/accel	/jointset/knee_r/knee_flexion_r/accel	/jointset/knee_r/knee_adduction_r/accel	/jointset/knee_r/knee_rotation_r/accel	/jointset/ankle_r/ankle_angle_r/accel	/jointset/subtalar_r/subtalar_angle_r/accel	gamma_cid13_p0	gamma_cid14_p0	gamma_cid14_p1	gamma_cid14_p2	gamma_cid14_p3	gamma_cid14_p4	gamma_cid14_p5
0	-0.006834790346855877	0.1315249954310287	0.9333645963094557	0.1934211968871041	-0.2284074443436044	-0.2407507784660405	-0.2903787966825928	0.2311786273363406	0.2311786273363406	0.1330223906123966	0.172592264414434	0.089344008118978	0.06357807930698087	0	0	0	0	0	0	0	0	0	0	0	0	0	0.09649469627817192	-0.03927358666460679	0.003736746945584882	-0.2264423257664691	0.1013464983645321	-0.09838221607130154	-0.02011693143139829	-29.91577658977813	-14.25720815284557	-40.07470156659137	0.9295078716540848	6.325191386313882	-609.4983946730626	30.94095375302266	-1.37938746437293	-1.828426083058401	-0.807902182856601	9.202779405538744	-0.3079442536849028	2.273296168388597	-6.435413655656182	9.961615233716168	9.961615233716701	-1.925174739588392	0.5161891571859738	2.636278013009906	0.3519774995690018	3.992152983963839e-09	2.628767201759956e-08	1.331197426094938e-08	8.331109804002367e-08	-2.307831567093374e-08	1.380970736103032e-07	-4.249552052877185e-08
0.01	-0.006900020004278105	0.1314356984918049	0.9333252208074164	0.1938700643277868	-0.2284208174210396	-0.2406331125452038	-0.2907013545191455	0.2316671194246994	0.2316671194246996	0.132924836601509	0.1726104334593317	0.08947478137375486	0.06359782071623106	-0.01318094932884494	-0.01767026718627674	-0.007865806781640493	0.08947227590944919	-0.002624846186445305	0.02371097002112593	-0.06405587356339432	0.09726066877723595	0.09726066877723796	-0.01946815451414666	0.00330353854290654	0.02617721936110449	0.004014078201922672	0.09861333352349672	-0.05578497664545377	0.003414152932514004	-0.2350453425324155	0.1120307792209078	-0.0885311873753834	-0.02049929239391394	-29.92115005791891	-10.32718771702392	-35.10176039686628	0.1292350571291007	1.856462458369394	-611.1682891526834	42.29586628670504	-1.307703736654782	-1.707963553301914	-0.774498262466889	8.774270002271017	-0.23227918715722	2.446678818808445	-6.322320144609719	9.542629567125376	9.542629567125346	-1.951230264067891	0.1879101607013311	2.611829965032339	0.4360039696091744	3.999362053083266e-08	8.414930106357163e-09	-2.798744743066042e-07	1.667657177312801e-07	2.187999284210204e-08	5.307172272973464e-09	-2.145245834154448e-07
0.02	-0.007101110168891672	0.1311753715773404	0.9332074715702308	0.1952046181912885	-0.2284589438375458	-0.2402730006441888	-0.2916508002789179	0.2331150855743102	0.2331150855743104	0.1326338821541319	0.1726517326812303	0.08986800403561516	0.06365967910532151	-0.02717210143827018	-0.03420599504814017	-0.0156747470292442	0.1771372845638189	-0.004950667814205641	0.04848919603565655	-0.1253775846439353	0.1918948122503947	0.191894812250396	-0.03868008729789684	0.004626035400146552	0.05248988141668294	0.008423395968049521	0.1007319707688206	-0.07229636662629785	0.003091558919443413	-0.2436483592983622	0.1227150600772835	-0.07868015867946523	-0.02088165335643032	-29.93640278757734	-6.320271350511905	-30.13206552732305	-0.6514309925879125	-2.589906253434533	-611.615893157082	53.40825479888582	-1.541428020488992	-1.601518218175742	-0.7965288760492429	8.841325954522842	-0.2481393419479087	2.486747367069533	-5.888581159085516	9.436310172900724	9.436310172900724	-1.873930393509096	0.1199808200526683	2.6633665519047	0.4310254124098375	7.599508807770148e-08	-9.45781180488523e-09	-5.730609228741579e-07	2.502203374225364e-07	6.683830135513782e-08	-1.274827290643562e-07	-3.865536463021177e-07
0.03	-0.007444842223018334	0.1307542305048374	0.933011738199082	0.1974065300768445	-0.2285196960659125	-0.2396637098470903	-0.2931987440624886	0.2354965435066572	0.2354965435066575	0.1321537402577243	0.1727006911875384	0.09052338260660195	0.06376612568477148	-0.04154484403546518	-0.04994549345029657	-0.02347435973118987	0.2628804863973299	-0.007220314349935681	0.07322346975473791	-0.1836857145828253	0.2839724891387649	0.2839724891387646	-0.05716493772566256	0.005188883675219741	0.07844792580136124	0.01280345436949314	0.09431372659888093	-0.07054263040033538	0.003733535809474137	-0.2366001964940749	0.1130245077559097	-0.07565299599937018	-0.01556909964566866	-29.960361080586	-9.280051062610948	-29.20832415544714	-0.9440862707597477	-1.182127953846891	-612.1790420174498	54.22207251898021	-1.38077333601021	-1.54864320160079	-0.7720683799438233	8.386127470908789	-0.2194901123596482	2.445002406435957	-5.723110288188143	9.029838340288677	9.029838340288421	-1.808325854045312	0.02797383121547573	2.541347439918249	0.4320657736803534	8.655941973397165e-08	-1.701332390201972e-08	-6.487257545832481e-07	2.681185175731141e-07	8.124033908545451e-08	-2.020169010940006e-07	-4.266404751278531e-07
0.04	-0.007931416894452018	0.1301779989382399	0.9327379305183786	0.2004549360153643	-0.2286037673202314	-0.2388114293063793	-0.2953140054208275	0.2387860465865847	0.238786046586585	0.1314942371597122	0.1727559855765934	0.09143420643306928	0.06391448679216959	-0.05574062489967842	-0.06522409386706081	-0.03128960894019926	0.3464360951565829	-0.009614473004629524	0.0970871447581599	-0.2388410995976112	0.3735038417664751	0.3735038417664733	-0.07455232761882839	0.005893211949518262	0.1035789325127951	0.01680630155767806	0.08789548242894166	-0.06878889417437291	0.004375512699504722	-0.2295520336897875	0.103333955434536	-0.07262583331927512	-0.01025654593490677	-29.99188124734422	-12.16905837061281	-28.28847413207456	-1.217520821171939	0.2361758592823044	-611.6249732372681	54.81424849478994	-1.506035673892634	-1.509338621097306	-0.7996561774619848	8.403807339671202	-0.2730417657406688	2.312627623937638	-5.25803217426467	8.927045320768695	8.927045320768787	-1.654438286589123	0.1482768198969421	2.497959017255938	0.3555831697573107	9.659927436156968e-08	-2.435610961123446e-08	-7.199056045014421e-07	2.846650185579047e-07	9.501235061406566e-08	-2.753499240657547e-07	-4.640068455193423e-07
0.05	-0.008558703104100847	0.1294514590661181	0.9323857677614363	0.2043269866632107	-0.2287126601913115	-0.2377251202747434	-0.297966849123873	0.242957558590295	0.2429575585902951	0.1306672385489853	0.1728191723052468	0.09259202561857945	0.0641006269186921	-0.06960579806132484	-0.07998827238231573	-0.03914922596252616	0.4274503878489397	-0.01218949529023822	0.1200193127837263	-0.2914296478903921	0.4602870736997973	0.4602870736998013	-0.09061350900892848	0.006749318379584507	0.1278280113684841	0.02034787303542114	0.08346762308362156	-0.06402684534212426	0.004727446072024458	-0.2270567075378518	0.1007304051744547	-0.07363003251601956	-0.006479826321574741	-30.0297938687483	-13.01142065104945	-28.91622344141273	-1.067029170021654	0.2629779352877064	-611.2371465923444	52.48528598441102	-1.310127498134862	-1.44559712673252	-0.7801126543366339	7.871695113503954	-0.2535838728436645	2.26027819116287	-5.214567188625718	8.477219937259704	8.477219937260504	-1.546960563691586	0.05511760923960469	2.364860796539131	0.3422878455130777	8.48071776097322e-08	-3.946222290973079e-08	-6.384571333783992e-07	2.014816998490134e-07	9.752410062589774e-08	-3.727892426297603e-07	-3.731157496241569e-07
0.06	-0.00932131491753297	0.1285801494768452	0.9319548091963273	0.2089934712138778	-0.2288480735678223	-0.2364141362029924	-0.3011366385162144	0.2479815544748677	0.2479815544748676	0.1296866276246635	0.1728910881091365	0.09398763128800923	0.06431995150173812	-0.08280574565633991	-0.09417803729728776	-0.04704877057359695	0.5053228757207378	-0.01491857409075476	0.1420221527811619	-0.3422302374568097	0.5440006179389482	0.5440006179389575	-0.105274790337874	0.007639026996776235	0.1511362292967228	0.02344319286237509	0.07903976373830165	-0.05926479650987546	0.005079379444544382	-0.2245613813859161	0.09812685491437351	-0.07463423171276377	-0.002703106708242627	-30.07250647651227	-13.79070355226127	-29.54968995970294	-0.8964788958152927	0.2907578593306985	-609.8563183100516	49.96033156395357	-1.372990560566358	-1.394455901040725	-0.807641695210765	7.775446375559437	-0.3038530687222383	2.126762018311495	-4.900440428992036	8.313107781934452	8.313107781934454	-1.374458274358222	0.1549972573220317	2.309786831765851	0.2663328395994878	7.209584079981322e-08	-5.489521315935476e-08	-5.505822066325675e-07	1.140992308372303e-07	9.956173436333913e-08	-4.712435631134395e-07	-2.768243393590061e-07
0.07000000000000001	-0.01021367098982098	0.1275697301957461	0.931444339165987	0.2144251518945843	-0.2290114497838781	-0.2348878051354567	-0.3048045646790936	0.2538288994407228	0.2538288994407228	0.1285658894912349	0.1729723790845152	0.09561219090042547	0.06456828808847392	-0.09561341910911862	-0.1078167625495388	-0.05507408777741987	0.5806392614278177	-0.0177343715912338	0.1631221762212587	-0.3910153097768718	0.625068467096617	0.6250684670966218	-0.1187585386467906	0.008585243915099561	0.1736744757481696	0.02622517919664503	0.0743038998233391	-0.06040273073695684	0.005558071473741744	-0.222298159981379	0.09409896981918632	-0.07049767234242553	0.001239062857024912	-30.11836804457672	-14.75510299517498	-27.89187605558739	-1.195236419803944	0.2974678225712324	-608.6657559208944	52.26522885484866	-1.226838053801887	-1.335202444324275	-0.8044000175137749	7.353635909630618	-0.2671423933163523	2.083375155350369	-4.816587832188729	7.943622997273948	7.943622997273815	-1.318261850602006	0.05937355875874104	2.210669237795566	0.2842184043479302	6.856733623660008e-08	-5.872450334834082e-08	-5.059111885637998e-07	9.610724358600181e-08	9.993635854901243e-08	-5.174510292674414e-07	-2.469430523639198e-07
0.08	-0.0112325402598704	0.1264255993407232	0.9308527313066995	0.2205987766806312	-0.2292023238354598	-0.2331541233038216	-0.3089501510049086	0.2604749228010727	0.2604749228010728	0.1273137281264287	0.1730621201590114	0.09745909811454828	0.06484446191335387	-0.1081083852086278	-0.1209203520820659	-0.06327633636307181	0.6537116967888169	-0.02041814119594053	0.1834923056010194	-0.4377622700439519	0.7037362968379212	0.7037362968379197	-0.1315594366134498	0.009329046820273197	0.1956057496380396	0.02901064049120237	0.06956803590837636	-0.06154066496403801	0.006036763502939115	-0.2200349385768341	0.09007108472399913	-0.06636111297208704	0.005181232422309443	-30.16540497179528	-15.66319269757428	-26.23319792261125	-1.483856340026754	0.2941472680758148	-606.6040465682237	54.42158153401516	-1.310449089912447	-1.287428757095624	-0.8430279715765687	7.326656306341835	-0.2774474895677742	1.980783206244279	-4.492818018395652	7.833103898661593	7.833103898658944	-1.237888205906744	0.1145144546920931	2.188392319446949	0.2670278316569687	6.563127246349699e-08	-6.180516772696313e-08	-4.640275194419396e-07	8.259206160964785e-08	1.00203691795862e-07	-5.602877306259801e-07	-2.213462894507733e-07
0.09	-0.01237514116675367	0.1251532528392418	0.9301780787288121	0.2274917009489835	-0.2294203221714811	-0.2312201014990227	-0.3135520361139678	0.2678952459810398	0.2678952459810416	0.1259392890491539	0.173158497756798	0.09952189207439401	0.0651472116469054	-0.1203487122274623	-0.13344396030676	-0.07168853344757502	0.7244183383864778	-0.02322681758641378	0.2032484728680592	-0.4822258218031061	0.7798598065244219	0.7798598065244015	-0.1430299021181672	0.009885309924546793	0.216813224332554	0.03144330339434976	0.06404761273082107	-0.05976953702617656	0.006549767824914388	-0.217684260510266	0.08634062132298997	-0.06418815275744233	0.009794275860447498	-30.21158842273157	-16.61795640680805	-25.47707368243736	-1.581078666884692	0.282040749024054	-605.1174452511633	54.58594058009077	-1.17134946808312	-1.219058623978133	-0.8455814617192631	6.874447230654953	-0.2894068236126109	1.963524281568221	-4.364784259953426	7.431681530181928	7.431681530180716	-1.056916159083495	0.01702930321451008	2.065958818218003	0.2169239325804095	4.241277944629708e-08	-8.008011605438166e-08	-3.413819981154314e-07	-6.63525035793216e-08	9.619795775592143e-08	-6.166887200127821e-07	-7.392417296911698e-08
